<svg xmlns="http://www.w3.org/2000/svg" width="128" height="128" xml:space="preserve"><path fill="#282D33" d="M126.004 101.46H48.252c-5.167 0-8.826-1.478-10.875-4.394-3.105-4.417-1.048-10.288-.958-10.535l.144-.314 6.613-11.591 3.468 1.979-6.513 11.415c-.229.744-1.198 4.339.522 6.766 1.261 1.779 3.818 2.683 7.599 2.683h77.752v3.991zM49.309 126.712c-6.513 0-11.811-5.35-11.811-11.926 0-6.575 5.298-11.924 11.811-11.924 6.518 0 11.817 5.349 11.817 11.924 0 6.576-5.301 11.926-11.817 11.926zm.003-19.858c-4.315 0-7.822 3.559-7.822 7.932 0 4.374 3.507 7.934 7.818 7.934 4.315 0 7.825-3.56 7.825-7.934.001-4.373-3.508-7.932-7.821-7.932zM110.131 126.712c-6.513 0-11.812-5.35-11.812-11.926 0-6.575 5.299-11.924 11.812-11.924 6.518 0 11.816 5.349 11.816 11.924 0 6.576-5.301 11.926-11.816 11.926zm.004-19.858c-4.315 0-7.823 3.559-7.823 7.932 0 4.374 3.508 7.934 7.819 7.934 4.315 0 7.824-3.56 7.824-7.934 0-4.373-3.508-7.932-7.82-7.932z"/><path fill="#282D33" d="M128 77.166H28.258L17.1 7.417 0 5.248l.502-3.96L20.57 3.833l3.319 20.749H128v52.584zm-96.338-3.992h92.346v-44.6h-99.48l7.134 44.6z"/><path fill="#282D33" d="M40.317 36.652h3.992v28.007h-3.992zM57.077 36.652h3.992v28.007h-3.992z"/><g><path fill="#282D33" d="M73.835 36.652h3.992v28.007h-3.992z"/></g><g><path fill="#282D33" d="M90.595 36.652h3.992v28.007h-3.992z"/></g><g><path fill="#282D33" d="M107.354 36.652h3.992v28.007h-3.992z"/></g></svg>